<svg width="21" height="22" viewBox="0 0 21 22" fill="none" xmlns="http://www.w3.org/2000/svg">
<g id="file-earmark-ruled">
<g id="Union">
<path d="M19 18V6.125L13 0.5H5.66667C4.19391 0.5 3 1.61929 3 3V18C3 19.3807 4.19391 20.5 5.66667 20.5H16.3333C17.8061 20.5 19 19.3807 19 18ZM13 4.25C13 5.28553 13.8954 6.125 15 6.125H17.6667V11.75H4.33333V3C4.33333 2.30964 4.93029 1.75 5.66667 1.75H13V4.25ZM4.33333 15.5V13H7V15.5H4.33333ZM4.33333 16.75H7V19.25H5.66667C4.93029 19.25 4.33333 18.6904 4.33333 18V16.75ZM8.33333 19.25V16.75H17.6667V18C17.6667 18.6904 17.0697 19.25 16.3333 19.25H8.33333ZM17.6667 15.5H8.33333V13H17.6667V15.5Z" fill="white"/>
</g>
</g>
</svg>
